<svg version="1.1" viewBox="0.0 0.0 960.0 1511.8110236220473" fill="none" stroke="none" stroke-linecap="square" stroke-miterlimit="10" xmlns:xlink="http://www.w3.org/1999/xlink" xmlns="http://www.w3.org/2000/svg"><clipPath id="p.0"><path d="m0 0l960.0 0l0 1511.811l-960.0 0l0 -1511.811z" clip-rule="nonzero"/></clipPath><g clip-path="url(#p.0)"><path fill="#000000" fill-opacity="0.0" d="m0 0l960.0 0l0 1511.811l-960.0 0z" fill-rule="evenodd"/><path fill="#cfe2f3" d="m210.20642 684.41455l0 0c0 -231.45514 121.52472 -419.0866 271.43307 -419.0866l0 0c71.988495 0 141.0286 44.153625 191.93216 122.74762c50.903564 78.593994 79.500916 185.1903 79.500916 296.339l0 0c0 231.45514 -121.52472 419.08667 -271.43307 419.08667l0 0c-149.90836 0 -271.43307 -187.63153 -271.43307 -419.08667z" fill-rule="evenodd"/><path stroke="#000000" stroke-width="1.0" stroke-linejoin="round" stroke-linecap="butt" d="m210.20642 684.41455l0 0c0 -231.45514 121.52472 -419.0866 271.43307 -419.0866l0 0c71.988495 0 141.0286 44.153625 191.93216 122.74762c50.903564 78.593994 79.500916 185.1903 79.500916 296.339l0 0c0 231.45514 -121.52472 419.08667 -271.43307 419.08667l0 0c-149.90836 0 -271.43307 -187.63153 -271.43307 -419.08667z" fill-rule="evenodd"/><path fill="#cfe2f3" d="m200.77415 1120.5789l0 0c0 -86.60864 131.94557 -156.81885 294.70868 -156.81885l0 0c162.76309 0 294.70865 70.210205 294.70865 156.81885l0 0c0 86.608765 -131.94556 156.81897 -294.70865 156.81897l0 0c-162.76309 0 -294.70868 -70.210205 -294.70868 -156.81897z" fill-rule="evenodd"/><path stroke="#000000" stroke-width="1.0" stroke-linejoin="round" stroke-linecap="butt" d="m200.77415 1120.5789l0 0c0 -86.60864 131.94557 -156.81885 294.70868 -156.81885l0 0c162.76309 0 294.70865 70.210205 294.70865 156.81885l0 0c0 86.608765 -131.94556 156.81897 -294.70865 156.81897l0 0c-162.76309 0 -294.70868 -70.210205 -294.70868 -156.81897z" fill-rule="evenodd"/><path fill="#cfe2f3" d="m0 681.4399l0 0c0 -224.28848 63.772984 -406.11023 142.44095 -406.11023l0 0c37.77768 0 74.0081 42.7865 100.72095 118.94693c26.71286 76.16046 41.72 179.4562 41.72 287.1633l0 0c0 224.28851 -63.772995 406.1103 -142.44095 406.1103l0 0c-37.777695 0 -74.0081 -42.7865 -100.72096 -118.94696c-26.712858 -76.16046 -41.719986 -179.45618 -41.719986 -287.16333z" fill-rule="evenodd"/><path stroke="#000000" stroke-width="1.0" stroke-linejoin="round" stroke-linecap="butt" d="m0 681.4399l0 0c0 -224.28848 63.772984 -406.11023 142.44095 -406.11023l0 0c37.77768 0 74.0081 42.7865 100.72095 118.94693c26.71286 76.16046 41.72 179.4562 41.72 287.1633l0 0c0 224.28851 -63.772995 406.1103 -142.44095 406.1103l0 0c-37.777695 0 -74.0081 -42.7865 -100.72096 -118.94696c-26.712858 -76.16046 -41.719986 -179.45618 -41.719986 -287.16333z" fill-rule="evenodd"/><path fill="#cfe2f3" d="m667.8083 684.4133l0 0c0 -210.10303 65.40875 -380.42517 146.09448 -380.42517l0 0c38.746643 0 75.90637 40.080383 103.30438 111.42395c27.398071 71.34357 42.7901 168.1062 42.7901 269.00122l0 0c0 210.10303 -65.40875 380.42517 -146.09448 380.42517l0 0c-80.68573 0 -146.09448 -170.32214 -146.09448 -380.42517z" fill-rule="evenodd"/><path stroke="#000000" stroke-width="1.0" stroke-linejoin="round" stroke-linecap="butt" d="m667.8083 684.4133l0 0c0 -210.10303 65.40875 -380.42517 146.09448 -380.42517l0 0c38.746643 0 75.90637 40.080383 103.30438 111.42395c27.398071 71.34357 42.7901 168.1062 42.7901 269.00122l0 0c0 210.10303 -65.40875 380.42517 -146.09448 380.42517l0 0c-80.68573 0 -146.09448 -170.32214 -146.09448 -380.42517z" fill-rule="evenodd"/><path fill="#cfe2f3" d="m167.89865 194.77165l0 0c0 -107.56941 142.75418 -194.77165 318.8504 -194.77165l0 0c176.09622 0 318.85037 87.20224 318.85037 194.77165l0 0c0 107.56941 -142.75415 194.77165 -318.85037 194.77165l0 0c-176.09622 0 -318.8504 -87.20224 -318.8504 -194.77165z" fill-rule="evenodd"/><path stroke="#000000" stroke-width="1.0" stroke-linejoin="round" stroke-linecap="butt" d="m167.89865 194.77165l0 0c0 -107.56941 142.75418 -194.77165 318.8504 -194.77165l0 0c176.09622 0 318.85037 87.20224 318.85037 194.77165l0 0c0 107.56941 -142.75415 194.77165 -318.85037 194.77165l0 0c-176.09622 0 -318.8504 -87.20224 -318.8504 -194.77165z" fill-rule="evenodd"/><path fill="#ffff00" d="m440.34613 676.66376l0 0c0 -22.326233 16.117767 -40.425232 36.0 -40.425232l0 0c9.547791 0 18.704529 4.259094 25.455841 11.840271c6.7513123 7.5811768 10.544159 17.863525 10.544159 28.58496l0 0c0 22.326172 -16.117737 40.42517 -36.0 40.42517l0 0c-19.882233 0 -36.0 -18.098999 -36.0 -40.42517z" fill-rule="evenodd"/><path stroke="#000000" stroke-width="1.0" stroke-linejoin="round" stroke-linecap="butt" d="m440.34613 676.66376l0 0c0 -22.326233 16.117767 -40.425232 36.0 -40.425232l0 0c9.547791 0 18.704529 4.259094 25.455841 11.840271c6.7513123 7.5811768 10.544159 17.863525 10.544159 28.58496l0 0c0 22.326172 -16.117737 40.42517 -36.0 40.42517l0 0c-19.882233 0 -36.0 -18.098999 -36.0 -40.42517z" fill-rule="evenodd"/><path fill="#000000" d="m470.9059 686.54376l-3.84375 0l0 -14.484375q-2.09375 1.96875 -4.953125 2.921875l0 -3.484375q1.5 -0.5 3.265625 -1.875q1.765625 -1.375 2.421875 -3.203125l3.109375 0l0 20.125zm14.027344 0l-3.84375 0l0 -14.484375q-2.09375 1.96875 -4.953125 2.921875l0 -3.484375q1.5 -0.5 3.265625 -1.875q1.765625 -1.375 2.421875 -3.203125l3.109375 0l0 20.125z" fill-rule="nonzero"/><path fill="#ff0000" d="m450.75134 201.8849l0 0c0 -22.326218 16.117737 -40.425186 36.0 -40.425186l0 0c9.547791 0 18.704529 4.2590637 25.45581 11.840256c6.751343 7.5812073 10.544189 17.86351 10.544189 28.58493l0 0c0 22.326218 -16.117767 40.4252 -36.0 40.4252l0 0c-19.882263 0 -36.0 -18.098984 -36.0 -40.4252z" fill-rule="evenodd"/><path stroke="#000000" stroke-width="1.0" stroke-linejoin="round" stroke-linecap="butt" d="m450.75134 201.8849l0 0c0 -22.326218 16.117737 -40.425186 36.0 -40.425186l0 0c9.547791 0 18.704529 4.2590637 25.45581 11.840256c6.751343 7.5812073 10.544189 17.86351 10.544189 28.58493l0 0c0 22.326218 -16.117767 40.4252 -36.0 40.4252l0 0c-19.882263 0 -36.0 -18.098984 -36.0 -40.4252z" fill-rule="evenodd"/><path fill="#000000" d="m481.31113 211.76491l-3.84375 0l0 -14.484375q-2.09375 1.96875 -4.953125 2.921875l0 -3.484375q1.5 -0.5 3.265625 -1.875q1.765625 -1.375 2.421875 -3.203125l3.109375 0l0 20.125zm5.6035156 -5.3125l3.71875 -0.453125q0.1875 1.421875 0.96875 2.171875q0.78125 0.75 1.875 0.75q1.203125 0 2.015625 -0.90625q0.8125 -0.90625 0.8125 -2.4375q0 -1.4375 -0.78125 -2.28125q-0.78125 -0.859375 -1.90625 -0.859375q-0.734375 0 -1.765625 0.296875l0.421875 -3.140625q1.5625 0.046875 2.375 -0.671875q0.828125 -0.71875 0.828125 -1.90625q0 -1.015625 -0.609375 -1.609375q-0.59375 -0.609375 -1.59375 -0.609375q-0.984375 0 -1.6875 0.6875q-0.6875 0.6875 -0.84375 2.0l-3.53125 -0.609375q0.359375 -1.8125 1.109375 -2.890625q0.75 -1.09375 2.078125 -1.71875q1.328125 -0.625 2.984375 -0.625q2.828125 0 4.546875 1.796875q1.40625 1.484375 1.40625 3.34375q0 2.640625 -2.890625 4.203125q1.734375 0.375 2.765625 1.671875q1.03125 1.28125 1.03125 3.09375q0 2.640625 -1.9375 4.5q-1.921875 1.859375 -4.796875 1.859375q-2.71875 0 -4.515625 -1.5625q-1.78125 -1.578125 -2.078125 -4.09375z" fill-rule="nonzero"/><path fill="#ff0000" d="m776.4358 676.40735l0 0c0 -22.326233 16.117737 -40.42517 36.0 -40.42517l0 0c9.547791 0 18.704529 4.259033 25.455872 11.84021c6.7512817 7.581238 10.544128 17.863525 10.544128 28.58496l0 0c0 22.326233 -16.117737 40.42517 -36.0 40.42517l0 0c-19.882263 0 -36.0 -18.098938 -36.0 -40.42517z" fill-rule="evenodd"/><path stroke="#000000" stroke-width="1.0" stroke-linejoin="round" stroke-linecap="butt" d="m776.4358 676.40735l0 0c0 -22.326233 16.117737 -40.42517 36.0 -40.42517l0 0c9.547791 0 18.704529 4.259033 25.455872 11.84021c6.7512817 7.581238 10.544128 17.863525 10.544128 28.58496l0 0c0 22.326233 -16.117737 40.42517 -36.0 40.42517l0 0c-19.882263 0 -36.0 -18.098938 -36.0 -40.42517z" fill-rule="evenodd"/><path fill="#000000" d="m806.9956 686.28735l-3.84375 0l0 -14.484375q-2.09375 1.96875 -4.953125 2.921875l0 -3.484375q1.5 -0.5 3.265625 -1.875q1.765625 -1.375 2.421875 -3.203125l3.109375 0l0 20.125zm5.8066406 -5.15625l3.828125 -0.390625q0.15625 1.296875 0.953125 2.0625q0.8125 0.75 1.875 0.75q1.203125 0 2.03125 -0.96875q0.84375 -0.984375 0.84375 -2.953125q0 -1.84375 -0.828125 -2.765625q-0.828125 -0.921875 -2.15625 -0.921875q-1.65625 0 -2.96875 1.453125l-3.125 -0.453125l1.96875 -10.421875l10.171875 0l0 3.59375l-7.25 0l-0.609375 3.40625q1.296875 -0.640625 2.625 -0.640625q2.5625 0 4.328125 1.859375q1.78125 1.859375 1.78125 4.8125q0 2.484375 -1.421875 4.421875q-1.96875 2.65625 -5.4375 2.65625q-2.765625 0 -4.515625 -1.484375q-1.75 -1.5 -2.09375 -4.015625z" fill-rule="nonzero"/><path fill="#3c78d8" d="m446.719 333.03384l0 0c0 -22.326202 16.117737 -40.42517 36.0 -40.42517l0 0c9.547791 0 18.704529 4.2590637 25.455841 11.8402405c6.7513123 7.5812073 10.544159 17.863525 10.544159 28.58493l0 0c0 22.326233 -16.117767 40.4252 -36.0 40.4252l0 0c-19.882263 0 -36.0 -18.098969 -36.0 -40.4252z" fill-rule="evenodd"/><path stroke="#000000" stroke-width="1.0" stroke-linejoin="round" stroke-linecap="butt" d="m446.719 333.03384l0 0c0 -22.326202 16.117737 -40.42517 36.0 -40.42517l0 0c9.547791 0 18.704529 4.2590637 25.455841 11.8402405c6.7513123 7.5812073 10.544159 17.863525 10.544159 28.58493l0 0c0 22.326233 -16.117767 40.4252 -36.0 40.4252l0 0c-19.882263 0 -36.0 -18.098969 -36.0 -40.4252z" fill-rule="evenodd"/><path fill="#000000" d="m477.27878 342.91385l-3.84375 0l0 -14.484375q-2.09375 1.96875 -4.953125 2.921875l0 -3.484375q1.5 -0.5 3.265625 -1.875q1.765625 -1.375 2.421875 -3.203125l3.109375 0l0 20.125zm18.728516 -3.5625l0 3.5625l-13.46875 0q0.21875 -2.03125 1.3125 -3.828125q1.09375 -1.8125 4.3125 -4.8125q2.59375 -2.421875 3.1875 -3.28125q0.796875 -1.1875 0.796875 -2.359375q0 -1.28125 -0.703125 -1.96875q-0.6875 -0.6875 -1.890625 -0.6875q-1.203125 0 -1.921875 0.734375q-0.703125 0.71875 -0.8125 2.390625l-3.828125 -0.375q0.328125 -3.171875 2.125 -4.546875q1.8125 -1.390625 4.53125 -1.390625q2.96875 0 4.65625 1.609375q1.703125 1.59375 1.703125 3.96875q0 1.359375 -0.5 2.578125q-0.484375 1.21875 -1.53125 2.5625q-0.703125 0.890625 -2.515625 2.5625q-1.8125 1.65625 -2.296875 2.203125q-0.484375 0.546875 -0.796875 1.078125l7.640625 0z" fill-rule="nonzero"/><path fill="#3c78d8" d="m679.49634 676.6663l0 0c0 -22.326233 17.520813 -40.42517 39.13385 -40.42517l0 0c10.378967 0 20.332825 4.259033 27.671814 11.840271c7.3390503 7.5811768 11.462097 17.863464 11.462097 28.5849l0 0c0 22.326233 -17.520874 40.42517 -39.13391 40.42517l0 0c-21.613037 0 -39.13385 -18.098938 -39.13385 -40.42517z" fill-rule="evenodd"/><path stroke="#000000" stroke-width="1.0" stroke-linejoin="round" stroke-linecap="butt" d="m679.49634 676.6663l0 0c0 -22.326233 17.520813 -40.42517 39.13385 -40.42517l0 0c10.378967 0 20.332825 4.259033 27.671814 11.840271c7.3390503 7.5811768 11.462097 17.863464 11.462097 28.5849l0 0c0 22.326233 -17.520874 40.42517 -39.13391 40.42517l0 0c-21.613037 0 -39.13385 -18.098938 -39.13385 -40.42517z" fill-rule="evenodd"/><path fill="#000000" d="m710.974 686.5463l-3.84375 0l0 -14.484375q-2.09375 1.96875 -4.953125 2.921875l0 -3.484375q1.5 -0.5 3.265625 -1.875q1.765625 -1.375 2.421875 -3.203125l3.109375 0l0 20.125zm13.275391 0l0 -4.03125l-8.203125 0l0 -3.359375l8.703125 -12.734375l3.21875 0l0 12.71875l2.5 0l0 3.375l-2.5 0l0 4.03125l-3.71875 0zm0 -7.40625l0 -6.859375l-4.609375 6.859375l4.609375 0z" fill-rule="nonzero"/><path fill="#ff0000" d="m433.248 1115.8512l0 0c0 -22.326172 16.117737 -40.42517 36.0 -40.42517l0 0c9.547791 0 18.704529 4.259033 25.455841 11.840332c6.7513123 7.5811768 10.544159 17.863403 10.544159 28.584839l0 0c0 22.326294 -16.117737 40.425293 -36.0 40.425293l0 0c-19.882263 0 -36.0 -18.098999 -36.0 -40.425293z" fill-rule="evenodd"/><path stroke="#000000" stroke-width="1.0" stroke-linejoin="round" stroke-linecap="butt" d="m433.248 1115.8512l0 0c0 -22.326172 16.117737 -40.42517 36.0 -40.42517l0 0c9.547791 0 18.704529 4.259033 25.455841 11.840332c6.7513123 7.5811768 10.544159 17.863403 10.544159 28.584839l0 0c0 22.326294 -16.117737 40.425293 -36.0 40.425293l0 0c-19.882263 0 -36.0 -18.098999 -36.0 -40.425293z" fill-rule="evenodd"/><path fill="#000000" d="m463.80777 1125.7312l-3.84375 0l0 -14.484375q-2.09375 1.96875 -4.953125 2.921875l0 -3.484375q1.5 -0.5 3.265625 -1.875q1.765625 -1.375 2.421875 -3.203125l3.109375 0l0 20.125zm5.7441406 -16.203125l0 -3.5625l13.140625 0l0 2.78125q-1.625 1.609375 -3.3125 4.609375q-1.671875 2.984375 -2.5625 6.359375q-0.875 3.359375 -0.859375 6.015625l-3.703125 0q0.09375 -4.15625 1.703125 -8.46875q1.625 -4.328125 4.328125 -7.734375l-8.734375 0z" fill-rule="nonzero"/><path fill="#3c78d8" d="m440.34296 1020.29877l0 0c0 -22.326172 16.117737 -40.42517 36.0 -40.42517l0 0c9.547791 0 18.704529 4.259094 25.455841 11.840271c6.7513123 7.5811768 10.544159 17.863525 10.544159 28.5849l0 0c0 22.326233 -16.117767 40.425232 -36.0 40.425232l0 0c-19.882263 0 -36.0 -18.098999 -36.0 -40.425232z" fill-rule="evenodd"/><path stroke="#000000" stroke-width="1.0" stroke-linejoin="round" stroke-linecap="butt" d="m440.34296 1020.29877l0 0c0 -22.326172 16.117737 -40.42517 36.0 -40.42517l0 0c9.547791 0 18.704529 4.259094 25.455841 11.840271c6.7513123 7.5811768 10.544159 17.863525 10.544159 28.5849l0 0c0 22.326233 -16.117767 40.425232 -36.0 40.425232l0 0c-19.882263 0 -36.0 -18.098999 -36.0 -40.425232z" fill-rule="evenodd"/><path fill="#000000" d="m470.90274 1030.1788l-3.84375 0l0 -14.484436q-2.09375 1.96875 -4.953125 2.921875l0 -3.484375q1.5 -0.5 3.265625 -1.875q1.765625 -1.375 2.421875 -3.203125l3.109375 0l0 20.125061zm18.759766 -15.140686l-3.71875 0.421875q-0.140625 -1.15625 -0.71875 -1.703125q-0.5625 -0.546875 -1.484375 -0.546875q-1.21875 0 -2.0625 1.09375q-0.828125 1.09375 -1.046875 4.546875q1.4375 -1.6875 3.5625 -1.6875q2.40625 0 4.125 1.828125q1.71875 1.828125 1.71875 4.734375q0 3.078186 -1.8125 4.937561q-1.796875 1.859375 -4.625 1.859375q-3.046875 0 -5.0 -2.359375q-1.953125 -2.359375 -1.953125 -7.734436q0 -5.515625 2.03125 -7.9375q2.046875 -2.4375 5.296875 -2.4375q2.28125 0 3.78125 1.28125q1.5 1.28125 1.90625 3.703125zm-8.703125 8.390625q0 1.875061 0.859375 2.890686q0.859375 1.015625 1.96875 1.015625q1.0625 0 1.765625 -0.828125q0.71875 -0.84375 0.71875 -2.734436q0 -1.96875 -0.765625 -2.875q-0.765625 -0.90625 -1.90625 -0.90625q-1.109375 0 -1.875 0.875q-0.765625 0.859375 -0.765625 2.5625z" fill-rule="nonzero"/><path fill="#3c78d8" d="m201.19913 659.0973l0 0c0 -22.326233 16.117737 -40.425232 36.0 -40.425232l0 0c9.547791 0 18.704529 4.259094 25.455841 11.840271c6.7513123 7.5811768 10.544159 17.863525 10.544159 28.58496l0 0c0 22.326172 -16.117767 40.42517 -36.0 40.42517l0 0c-19.882263 0 -36.0 -18.098999 -36.0 -40.42517z" fill-rule="evenodd"/><path stroke="#000000" stroke-width="1.0" stroke-linejoin="round" stroke-linecap="butt" d="m201.19913 659.0973l0 0c0 -22.326233 16.117737 -40.425232 36.0 -40.425232l0 0c9.547791 0 18.704529 4.259094 25.455841 11.840271c6.7513123 7.5811768 10.544159 17.863525 10.544159 28.58496l0 0c0 22.326172 -16.117767 40.42517 -36.0 40.42517l0 0c-19.882263 0 -36.0 -18.098999 -36.0 -40.42517z" fill-rule="evenodd"/><path fill="#000000" d="m231.7589 668.9773l-3.84375 0l0 -14.484375q-2.09375 1.96875 -4.953125 2.921875l0 -3.484375q1.5 -0.5 3.265625 -1.875q1.765625 -1.375 2.421875 -3.203125l3.109375 0l0 20.125zm9.041016 -10.8125q-1.484375 -0.625 -2.171875 -1.71875q-0.671875 -1.109375 -0.671875 -2.421875q0 -2.25 1.5625 -3.703125q1.5625 -1.46875 4.453125 -1.46875q2.859375 0 4.4375 1.46875q1.578125 1.453125 1.578125 3.703125q0 1.390625 -0.734375 2.484375q-0.71875 1.078125 -2.03125 1.65625q1.671875 0.671875 2.53125 1.953125q0.875 1.28125 0.875 2.96875q0 2.765625 -1.765625 4.515625q-1.765625 1.734375 -4.71875 1.734375q-2.734375 0 -4.546875 -1.4375q-2.140625 -1.703125 -2.140625 -4.65625q0 -1.625 0.796875 -2.984375q0.8125 -1.359375 2.546875 -2.09375zm0.796875 -3.875q0 1.15625 0.640625 1.796875q0.65625 0.640625 1.734375 0.640625q1.09375 0 1.75 -0.640625q0.65625 -0.65625 0.65625 -1.8125q0 -1.078125 -0.65625 -1.71875q-0.640625 -0.65625 -1.703125 -0.65625q-1.109375 0 -1.765625 0.65625q-0.65625 0.65625 -0.65625 1.734375zm-0.359375 8.59375q0 1.578125 0.8125 2.46875q0.8125 0.890625 2.03125 0.890625q1.1875 0 1.96875 -0.84375q0.78125 -0.859375 0.78125 -2.484375q0 -1.40625 -0.796875 -2.25q-0.796875 -0.859375 -2.0 -0.859375q-1.421875 0 -2.109375 0.96875q-0.6875 0.96875 -0.6875 2.109375z" fill-rule="nonzero"/><path fill="#ff0000" d="m112.41385 664.1888l0 0c0 -22.326233 16.117752 -40.425232 36.0 -40.425232l0 0c9.547791 0 18.704529 4.259094 25.455841 11.840271c6.7513123 7.581238 10.544159 17.863525 10.544159 28.58496l0 0c0 22.326233 -16.117752 40.42517 -36.0 40.42517l0 0c-19.882248 0 -36.0 -18.098938 -36.0 -40.42517z" fill-rule="evenodd"/><path stroke="#000000" stroke-width="1.0" stroke-linejoin="round" stroke-linecap="butt" d="m112.41385 664.1888l0 0c0 -22.326233 16.117752 -40.425232 36.0 -40.425232l0 0c9.547791 0 18.704529 4.259094 25.455841 11.840271c6.7513123 7.581238 10.544159 17.863525 10.544159 28.58496l0 0c0 22.326233 -16.117752 40.42517 -36.0 40.42517l0 0c-19.882248 0 -36.0 -18.098938 -36.0 -40.42517z" fill-rule="evenodd"/><path fill="#000000" d="m146.12988 670.5063l0 3.5625l-13.46875 0q0.21875 -2.03125 1.3125 -3.828125q1.09375 -1.8125 4.3125 -4.8125q2.59375 -2.421875 3.1875 -3.28125q0.796875 -1.1875 0.796875 -2.359375q0 -1.28125 -0.703125 -1.96875q-0.6875 -0.6875 -1.890625 -0.6875q-1.203125 0 -1.921875 0.734375q-0.703125 0.71875 -0.8125 2.390625l-3.828125 -0.375q0.328125 -3.171875 2.125 -4.546875q1.8125 -1.390625 4.53125 -1.390625q2.96875 0 4.65625 1.609375q1.703125 1.59375 1.703125 3.96875q0 1.359375 -0.5 2.578125q-0.484375 1.21875 -1.53125 2.5625q-0.703125 0.890625 -2.515625 2.5625q-1.8125 1.65625 -2.296875 2.203125q-0.484375 0.546875 -0.796875 1.078125l7.640625 0zm9.087891 -16.5625q2.90625 0 4.546875 2.078125q1.953125 2.453125 1.953125 8.15625q0 5.6875 -1.96875 8.1875q-1.625 2.046875 -4.53125 2.046875q-2.921875 0 -4.71875 -2.25q-1.796875 -2.25 -1.796875 -8.015625q0 -5.671875 1.96875 -8.15625q1.625 -2.046875 4.546875 -2.046875zm0 3.1875q-0.703125 0 -1.25 0.453125q-0.546875 0.4375 -0.84375 1.578125q-0.390625 1.5 -0.390625 5.015625q0 3.53125 0.34375 4.859375q0.359375 1.3125 0.890625 1.75q0.546875 0.4375 1.25 0.4375q0.6875 0 1.234375 -0.4375q0.546875 -0.453125 0.859375 -1.59375q0.390625 -1.484375 0.390625 -5.015625q0 -3.515625 -0.359375 -4.828125q-0.34375 -1.328125 -0.890625 -1.765625q-0.546875 -0.453125 -1.234375 -0.453125z" fill-rule="nonzero"/><path fill="#00ffff" d="m778.8386 975.4697l0 0c0 -22.326233 16.117737 -40.42517 36.0 -40.42517l0 0c9.547791 0 18.704529 4.259033 25.45581 11.840271c6.751343 7.5811768 10.544189 17.863464 10.544189 28.5849l0 0c0 22.326233 -16.117798 40.425232 -36.0 40.425232l0 0c-19.882263 0 -36.0 -18.098999 -36.0 -40.425232z" fill-rule="evenodd"/><path stroke="#000000" stroke-width="1.0" stroke-linejoin="round" stroke-linecap="butt" d="m778.8386 975.4697l0 0c0 -22.326233 16.117737 -40.42517 36.0 -40.42517l0 0c9.547791 0 18.704529 4.259033 25.45581 11.840271c6.751343 7.5811768 10.544189 17.863464 10.544189 28.5849l0 0c0 22.326233 -16.117798 40.425232 -36.0 40.425232l0 0c-19.882263 0 -36.0 -18.098999 -36.0 -40.425232z" fill-rule="evenodd"/><path fill="#000000" d="m809.3984 985.34973l-3.84375 0l0 -14.484375q-2.09375 1.96875 -4.953125 2.921875l0 -3.484375q1.5 -0.5 3.265625 -1.875q1.765625 -1.375 2.421875 -3.203125l3.109375 0l0 20.125zm12.244141 -20.125q2.90625 0 4.546875 2.078125q1.953125 2.453125 1.953125 8.15625q0 5.6875 -1.96875 8.1875q-1.625 2.046875 -4.53125 2.046875q-2.921875 0 -4.71875 -2.25q-1.796875 -2.25 -1.796875 -8.015625q0 -5.671875 1.96875 -8.15625q1.625 -2.046875 4.546875 -2.046875zm0 3.1875q-0.703125 0 -1.25 0.453125q-0.546875 0.4375 -0.84375 1.578125q-0.390625 1.5 -0.390625 5.015625q0 3.53125 0.34375 4.859375q0.359375 1.3125 0.890625 1.75q0.546875 0.4375 1.25 0.4375q0.6875 0 1.234375 -0.4375q0.546875 -0.453125 0.859375 -1.59375q0.390625 -1.484375 0.390625 -5.015625q0 -3.515625 -0.359375 -4.828125q-0.34375 -1.328125 -0.890625 -1.765625q-0.546875 -0.453125 -1.234375 -0.453125z" fill-rule="nonzero"/><path fill="#00ffff" d="m246.26755 1166.6523l0 0c0 -22.326294 16.117737 -40.42517 36.0 -40.42517l0 0c9.547791 0 18.704529 4.259033 25.455841 11.84021c6.7513123 7.5811768 10.544159 17.863525 10.544159 28.58496l0 0c0 22.326172 -16.117767 40.42517 -36.0 40.42517l0 0c-19.882263 0 -36.0 -18.098999 -36.0 -40.42517z" fill-rule="evenodd"/><path stroke="#000000" stroke-width="1.0" stroke-linejoin="round" stroke-linecap="butt" d="m246.26755 1166.6523l0 0c0 -22.326294 16.117737 -40.42517 36.0 -40.42517l0 0c9.547791 0 18.704529 4.259033 25.455841 11.84021c6.7513123 7.5811768 10.544159 17.863525 10.544159 28.58496l0 0c0 22.326172 -16.117767 40.42517 -36.0 40.42517l0 0c-19.882263 0 -36.0 -18.098999 -36.0 -40.42517z" fill-rule="evenodd"/><path fill="#000000" d="m279.98358 1172.9698l0 3.5625l-13.46875 0q0.21875 -2.03125 1.3125 -3.828125q1.09375 -1.8125 4.3125 -4.8125q2.59375 -2.421875 3.1875 -3.28125q0.796875 -1.1875 0.796875 -2.359375q0 -1.28125 -0.703125 -1.96875q-0.6875 -0.6875 -1.890625 -0.6875q-1.203125 0 -1.921875 0.734375q-0.703125 0.71875 -0.8125 2.390625l-3.828125 -0.375q0.328125 -3.171875 2.125 -4.546875q1.8125 -1.390625 4.53125 -1.390625q2.96875 0 4.65625 1.609375q1.703125 1.59375 1.703125 3.96875q0 1.359375 -0.5 2.578125q-0.484375 1.21875 -1.53125 2.5625q-0.703125 0.890625 -2.515625 2.5625q-1.8125 1.65625 -2.296875 2.203125q-0.484375 0.546875 -0.796875 1.078125l7.640625 0zm2.6503906 -1.59375l3.828125 -0.390625q0.15625 1.296875 0.953125 2.0625q0.8125 0.75 1.875 0.75q1.203125 0 2.03125 -0.96875q0.84375 -0.984375 0.84375 -2.953125q0 -1.84375 -0.828125 -2.765625q-0.828125 -0.921875 -2.15625 -0.921875q-1.65625 0 -2.96875 1.453125l-3.125 -0.453125l1.96875 -10.421875l10.171875 0l0 3.59375l-7.25 0l-0.609375 3.40625q1.296875 -0.640625 2.625 -0.640625q2.5625 0 4.328125 1.859375q1.78125 1.859375 1.78125 4.8125q0 2.484375 -1.421875 4.421875q-1.96875 2.65625 -5.4375 2.65625q-2.765625 0 -4.515625 -1.484375q-1.75 -1.5 -2.09375 -4.015625z" fill-rule="nonzero"/><path fill="#00ff00" d="m350.21088 1211.4037l0 0c0 -22.326172 16.117767 -40.42517 36.0 -40.42517l0 0c9.547821 0 18.70456 4.259033 25.455872 11.84021c6.7512817 7.5811768 10.544128 17.863525 10.544128 28.58496l0 0c0 22.326172 -16.117737 40.42517 -36.0 40.42517l0 0c-19.882233 0 -36.0 -18.098999 -36.0 -40.42517z" fill-rule="evenodd"/><path stroke="#000000" stroke-width="1.0" stroke-linejoin="round" stroke-linecap="butt" d="m350.21088 1211.4037l0 0c0 -22.326172 16.117767 -40.42517 36.0 -40.42517l0 0c9.547821 0 18.70456 4.259033 25.455872 11.84021c6.7512817 7.5811768 10.544128 17.863525 10.544128 28.58496l0 0c0 22.326172 -16.117737 40.42517 -36.0 40.42517l0 0c-19.882233 0 -36.0 -18.098999 -36.0 -40.42517z" fill-rule="evenodd"/><path fill="#000000" d="m383.9269 1217.7212l0 3.5625l-13.46875 0q0.21875 -2.03125 1.3125 -3.828125q1.09375 -1.8125 4.3125 -4.8125q2.59375 -2.421875 3.1875 -3.28125q0.796875 -1.1875 0.796875 -2.359375q0 -1.28125 -0.703125 -1.96875q-0.6875 -0.6875 -1.890625 -0.6875q-1.203125 0 -1.921875 0.734375q-0.703125 0.71875 -0.8125 2.390625l-3.828125 -0.375q0.328125 -3.171875 2.125 -4.546875q1.8125 -1.390625 4.53125 -1.390625q2.96875 0 4.65625 1.609375q1.703125 1.59375 1.703125 3.96875q0 1.359375 -0.5 2.578125q-0.484375 1.21875 -1.53125 2.5625q-0.703125 0.890625 -2.515625 2.5625q-1.8125 1.65625 -2.296875 2.203125q-0.484375 0.546875 -0.796875 1.078125l7.640625 0zm10.119141 3.5625l0 -4.03125l-8.203125 0l0 -3.359375l8.703125 -12.734375l3.21875 0l0 12.71875l2.5 0l0 3.375l-2.5 0l0 4.03125l-3.71875 0zm0 -7.40625l0 -6.859375l-4.609375 6.859375l4.609375 0z" fill-rule="nonzero"/><path fill="#00ff00" d="m430.61832 1211.4037l0 0c0 -22.326172 16.117767 -40.42517 36.0 -40.42517l0 0c9.547791 0 18.704529 4.259033 25.455841 11.84021c6.7513123 7.5811768 10.544159 17.863525 10.544159 28.58496l0 0c0 22.326172 -16.117737 40.42517 -36.0 40.42517l0 0c-19.882233 0 -36.0 -18.098999 -36.0 -40.42517z" fill-rule="evenodd"/><path stroke="#000000" stroke-width="1.0" stroke-linejoin="round" stroke-linecap="butt" d="m430.61832 1211.4037l0 0c0 -22.326172 16.117767 -40.42517 36.0 -40.42517l0 0c9.547791 0 18.704529 4.259033 25.455841 11.84021c6.7513123 7.5811768 10.544159 17.863525 10.544159 28.58496l0 0c0 22.326172 -16.117737 40.42517 -36.0 40.42517l0 0c-19.882233 0 -36.0 -18.098999 -36.0 -40.42517z" fill-rule="evenodd"/><path fill="#000000" d="m464.33435 1217.7212l0 3.5625l-13.46875 0q0.21875 -2.03125 1.3125 -3.828125q1.09375 -1.8125 4.3125 -4.8125q2.59375 -2.421875 3.1875 -3.28125q0.796875 -1.1875 0.796875 -2.359375q0 -1.28125 -0.703125 -1.96875q-0.6875 -0.6875 -1.890625 -0.6875q-1.203125 0 -1.921875 0.734375q-0.703125 0.71875 -0.8125 2.390625l-3.828125 -0.375q0.328125 -3.171875 2.125 -4.546875q1.8125 -1.390625 4.53125 -1.390625q2.96875 0 4.65625 1.609375q1.703125 1.59375 1.703125 3.96875q0 1.359375 -0.5 2.578125q-0.484375 1.21875 -1.53125 2.5625q-0.703125 0.890625 -2.515625 2.5625q-1.8125 1.65625 -2.296875 2.203125q-0.484375 0.546875 -0.796875 1.078125l7.640625 0zm2.4472656 -1.75l3.71875 -0.453125q0.1875 1.421875 0.96875 2.171875q0.78125 0.75 1.875 0.75q1.203125 0 2.015625 -0.90625q0.8125 -0.90625 0.8125 -2.4375q0 -1.4375 -0.78125 -2.28125q-0.78125 -0.859375 -1.90625 -0.859375q-0.734375 0 -1.765625 0.296875l0.421875 -3.140625q1.5625 0.046875 2.375 -0.671875q0.828125 -0.71875 0.828125 -1.90625q0 -1.015625 -0.609375 -1.609375q-0.59375 -0.609375 -1.59375 -0.609375q-0.984375 0 -1.6875 0.6875q-0.6875 0.6875 -0.84375 2.0l-3.53125 -0.609375q0.359375 -1.8125 1.109375 -2.890625q0.75 -1.09375 2.078125 -1.71875q1.328125 -0.625 2.984375 -0.625q2.828125 0 4.546875 1.796875q1.40625 1.484375 1.40625 3.34375q0 2.640625 -2.890625 4.203125q1.734375 0.375 2.765625 1.671875q1.03125 1.28125 1.03125 3.09375q0 2.640625 -1.9375 4.5q-1.921875 1.859375 -4.796875 1.859375q-2.71875 0 -4.515625 -1.5625q-1.78125 -1.578125 -2.078125 -4.09375z" fill-rule="nonzero"/><path fill="#00ff00" d="m517.9434 1211.4037l0 0c0 -22.326172 16.117737 -40.42517 36.0 -40.42517l0 0c9.547791 0 18.704529 4.259033 25.45581 11.84021c6.751343 7.5811768 10.544189 17.863525 10.544189 28.58496l0 0c0 22.326172 -16.117798 40.42517 -36.0 40.42517l0 0c-19.882263 0 -36.0 -18.098999 -36.0 -40.42517z" fill-rule="evenodd"/><path stroke="#000000" stroke-width="1.0" stroke-linejoin="round" stroke-linecap="butt" d="m517.9434 1211.4037l0 0c0 -22.326172 16.117737 -40.42517 36.0 -40.42517l0 0c9.547791 0 18.704529 4.259033 25.45581 11.84021c6.751343 7.5811768 10.544189 17.863525 10.544189 28.58496l0 0c0 22.326172 -16.117798 40.42517 -36.0 40.42517l0 0c-19.882263 0 -36.0 -18.098999 -36.0 -40.42517z" fill-rule="evenodd"/><path fill="#000000" d="m551.6594 1217.7212l0 3.5625l-13.46875 0q0.21875 -2.03125 1.3125 -3.828125q1.09375 -1.8125 4.3125 -4.8125q2.59375 -2.421875 3.1875 -3.28125q0.796875 -1.1875 0.796875 -2.359375q0 -1.28125 -0.703125 -1.96875q-0.6875 -0.6875 -1.890625 -0.6875q-1.203125 0 -1.921875 0.734375q-0.703125 0.71875 -0.8125 2.390625l-3.828125 -0.375q0.328125 -3.171875 2.125 -4.546875q1.8125 -1.390625 4.53125 -1.390625q2.96875 0 4.65625 1.609375q1.703125 1.59375 1.703125 3.96875q0 1.359375 -0.5 2.578125q-0.484375 1.21875 -1.53125 2.5625q-0.703125 0.890625 -2.515625 2.5625q-1.8125 1.65625 -2.296875 2.203125q-0.484375 0.546875 -0.796875 1.078125l7.640625 0zm15.572266 0l0 3.5625l-13.46875 0q0.21875 -2.03125 1.3125 -3.828125q1.09375 -1.8125 4.3125 -4.8125q2.59375 -2.421875 3.1875 -3.28125q0.796875 -1.1875 0.796875 -2.359375q0 -1.28125 -0.703125 -1.96875q-0.6875 -0.6875 -1.890625 -0.6875q-1.203125 0 -1.921875 0.734375q-0.703125 0.71875 -0.8125 2.390625l-3.828125 -0.375q0.328125 -3.171875 2.125 -4.546875q1.8125 -1.390625 4.53125 -1.390625q2.96875 0 4.65625 1.609375q1.703125 1.59375 1.703125 3.96875q0 1.359375 -0.5 2.578125q-0.484375 1.21875 -1.53125 2.5625q-0.703125 0.890625 -2.515625 2.5625q-1.8125 1.65625 -2.296875 2.203125q-0.484375 0.546875 -0.796875 1.078125l7.640625 0z" fill-rule="nonzero"/><path fill="#00ff00" d="m653.61835 1166.6523l0 0c0 -22.326294 16.117737 -40.42517 36.0 -40.42517l0 0c9.547791 0 18.704529 4.259033 25.455872 11.84021c6.7512817 7.5811768 10.544128 17.863525 10.544128 28.58496l0 0c0 22.326172 -16.117737 40.42517 -36.0 40.42517l0 0c-19.882263 0 -36.0 -18.098999 -36.0 -40.42517z" fill-rule="evenodd"/><path stroke="#000000" stroke-width="1.0" stroke-linejoin="round" stroke-linecap="butt" d="m653.61835 1166.6523l0 0c0 -22.326294 16.117737 -40.42517 36.0 -40.42517l0 0c9.547791 0 18.704529 4.259033 25.455872 11.84021c6.7512817 7.5811768 10.544128 17.863525 10.544128 28.58496l0 0c0 22.326172 -16.117737 40.42517 -36.0 40.42517l0 0c-19.882263 0 -36.0 -18.098999 -36.0 -40.42517z" fill-rule="evenodd"/><path fill="#000000" d="m687.3344 1172.9698l0 3.5625l-13.46875 0q0.21875 -2.03125 1.3125 -3.828125q1.09375 -1.8125 4.3125 -4.8125q2.59375 -2.421875 3.1875 -3.28125q0.796875 -1.1875 0.796875 -2.359375q0 -1.28125 -0.703125 -1.96875q-0.6875 -0.6875 -1.890625 -0.6875q-1.203125 0 -1.921875 0.734375q-0.703125 0.71875 -0.8125 2.390625l-3.828125 -0.375q0.328125 -3.171875 2.125 -4.546875q1.8125 -1.390625 4.53125 -1.390625q2.96875 0 4.65625 1.609375q1.703125 1.59375 1.703125 3.96875q0 1.359375 -0.5 2.578125q-0.484375 1.21875 -1.53125 2.5625q-0.703125 0.890625 -2.515625 2.5625q-1.8125 1.65625 -2.296875 2.203125q-0.484375 0.546875 -0.796875 1.078125l7.640625 0zm12.416016 3.5625l-3.84375 0l0 -14.484375q-2.09375 1.96875 -4.953125 2.921875l0 -3.484375q1.5 -0.5 3.265625 -1.875q1.765625 -1.375 2.421875 -3.203125l3.109375 0l0 20.125z" fill-rule="nonzero"/><path fill="#00ff00" d="m93.66436 975.4697l0 0c0 -22.326233 16.117744 -40.42517 35.999992 -40.42517l0 0c9.547806 0 18.704544 4.259033 25.455856 11.840271c6.751297 7.5811768 10.544144 17.863464 10.544144 28.5849l0 0c0 22.326233 -16.117737 40.425232 -36.0 40.425232l0 0c-19.882248 0 -35.999992 -18.098999 -35.999992 -40.425232z" fill-rule="evenodd"/><path stroke="#000000" stroke-width="1.0" stroke-linejoin="round" stroke-linecap="butt" d="m93.66436 975.4697l0 0c0 -22.326233 16.117744 -40.42517 35.999992 -40.42517l0 0c9.547806 0 18.704544 4.259033 25.455856 11.840271c6.751297 7.5811768 10.544144 17.863464 10.544144 28.5849l0 0c0 22.326233 -16.117737 40.425232 -36.0 40.425232l0 0c-19.882248 0 -35.999992 -18.098999 -35.999992 -40.425232z" fill-rule="evenodd"/><path fill="#000000" d="m127.38039 981.78723l0 3.5625l-13.46875 0q0.21875 -2.03125 1.3125 -3.828125q1.09375 -1.8125 4.3125 -4.8125q2.59375 -2.421875 3.1875 -3.28125q0.796875 -1.1875 0.796875 -2.359375q0 -1.28125 -0.703125 -1.96875q-0.6875 -0.6875 -1.890625 -0.6875q-1.203125 0 -1.921875 0.734375q-0.703125 0.71875 -0.8125 2.390625l-3.828125 -0.375q0.328125 -3.171875 2.125 -4.546875q1.8125 -1.390625 4.53125 -1.390625q2.96875 0 4.65625 1.609375q1.703125 1.59375 1.703125 3.96875q0 1.359375 -0.5 2.578125q-0.484375 1.21875 -1.53125 2.5625q-0.703125 0.890625 -2.515625 2.5625q-1.8125 1.65625 -2.296875 2.203125q-0.484375 0.546875 -0.796875 1.078125l7.640625 0zm15.603516 -11.578125l-3.71875 0.421875q-0.140625 -1.15625 -0.71875 -1.703125q-0.5625 -0.546875 -1.484375 -0.546875q-1.21875 0 -2.0625 1.09375q-0.828125 1.09375 -1.046875 4.546875q1.4375 -1.6875 3.5625 -1.6875q2.40625 0 4.125 1.828125q1.71875 1.828125 1.71875 4.734375q0 3.078125 -1.8125 4.9375q-1.796875 1.859375 -4.625 1.859375q-3.046875 0 -5.0 -2.359375q-1.953125 -2.359375 -1.953125 -7.734375q0 -5.515625 2.03125 -7.9375q2.046875 -2.4375 5.296875 -2.4375q2.28125 0 3.78125 1.28125q1.5 1.28125 1.90625 3.703125zm-8.703125 8.390625q0 1.875 0.859375 2.890625q0.859375 1.015625 1.96875 1.015625q1.0625 0 1.765625 -0.828125q0.71875 -0.84375 0.71875 -2.734375q0 -1.96875 -0.765625 -2.875q-0.765625 -0.90625 -1.90625 -0.90625q-1.109375 0 -1.875 0.875q-0.765625 0.859375 -0.765625 2.5625z" fill-rule="nonzero"/><path fill="#00ff00" d="m40.451347 789.0264l0 0c0 -22.326233 16.117748 -40.42517 36.0 -40.42517l0 0c9.547791 0 18.704536 4.259033 25.455841 11.840271c6.7513123 7.5811768 10.544159 17.863464 10.544159 28.5849l0 0c0 22.326233 -16.117752 40.425232 -36.0 40.425232l0 0c-19.882252 0 -36.0 -18.098999 -36.0 -40.425232z" fill-rule="evenodd"/><path stroke="#000000" stroke-width="1.0" stroke-linejoin="round" stroke-linecap="butt" d="m40.451347 789.0264l0 0c0 -22.326233 16.117748 -40.42517 36.0 -40.42517l0 0c9.547791 0 18.704536 4.259033 25.455841 11.840271c6.7513123 7.5811768 10.544159 17.863464 10.544159 28.5849l0 0c0 22.326233 -16.117752 40.425232 -36.0 40.425232l0 0c-19.882252 0 -36.0 -18.098999 -36.0 -40.425232z" fill-rule="evenodd"/><path fill="#000000" d="m74.16737 795.34393l0 3.5625l-13.468746 0q0.21875 -2.03125 1.3125 -3.828125q1.09375 -1.8125 4.312496 -4.8125q2.59375 -2.421875 3.1875 -3.28125q0.796875 -1.1875 0.796875 -2.359375q0 -1.28125 -0.703125 -1.96875q-0.6875 -0.6875 -1.890625 -0.6875q-1.203125 0 -1.921875 0.734375q-0.703125 0.71875 -0.8125 2.390625l-3.8281212 -0.375q0.328125 -3.171875 2.125 -4.546875q1.8124962 -1.390625 4.531246 -1.390625q2.96875 0 4.65625 1.609375q1.703125 1.59375 1.703125 3.96875q0 1.359375 -0.5 2.578125q-0.484375 1.21875 -1.53125 2.5625q-0.703125 0.890625 -2.515625 2.5625q-1.8125 1.65625 -2.296875 2.203125q-0.484375 0.546875 -0.796875 1.078125l7.640625 0zm2.5878906 -12.640625l0 -3.5625l13.140625 0l0 2.78125q-1.625 1.609375 -3.3125 4.609375q-1.671875 2.984375 -2.5625 6.359375q-0.875 3.359375 -0.859375 6.015625l-3.703125 0q0.09375 -4.15625 1.703125 -8.46875q1.625 -4.328125 4.328125 -7.734375l-8.734375 0z" fill-rule="nonzero"/><path fill="#00ff00" d="m30.169165 633.51025l0 0c0 -22.326233 16.117746 -40.42517 36.0 -40.42517l0 0c9.547791 0 18.704529 4.259033 25.455841 11.840271c6.7513123 7.5811768 10.544159 17.863464 10.544159 28.5849l0 0c0 22.326233 -16.117752 40.425232 -36.0 40.425232l0 0c-19.882256 0 -36.0 -18.098999 -36.0 -40.425232z" fill-rule="evenodd"/><path stroke="#000000" stroke-width="1.0" stroke-linejoin="round" stroke-linecap="butt" d="m30.169165 633.51025l0 0c0 -22.326233 16.117746 -40.42517 36.0 -40.42517l0 0c9.547791 0 18.704529 4.259033 25.455841 11.840271c6.7513123 7.5811768 10.544159 17.863464 10.544159 28.5849l0 0c0 22.326233 -16.117752 40.425232 -36.0 40.425232l0 0c-19.882256 0 -36.0 -18.098999 -36.0 -40.425232z" fill-rule="evenodd"/><path fill="#000000" d="m63.885193 639.82776l0 3.5625l-13.46875 0q0.21875 -2.03125 1.3125 -3.828125q1.09375 -1.8125 4.3125 -4.8125q2.59375 -2.421875 3.1875 -3.28125q0.796875 -1.1875 0.796875 -2.359375q0 -1.28125 -0.703125 -1.96875q-0.6875 -0.6875 -1.890625 -0.6875q-1.203125 0 -1.921875 0.734375q-0.703125 0.71875 -0.8125 2.390625l-3.828125 -0.375q0.328125 -3.171875 2.125 -4.546875q1.8125 -1.390625 4.53125 -1.390625q2.96875 0 4.65625 1.609375q1.703125 1.59375 1.703125 3.96875q0 1.359375 -0.5 2.578125q-0.484375 1.21875 -1.53125 2.5625q-0.703125 0.890625 -2.515625 2.5625q-1.8125 1.65625 -2.296875 2.203125q-0.484375 0.546875 -0.796875 1.078125l7.640625 0zm5.8847656 -7.25q-1.484375 -0.625 -2.171875 -1.71875q-0.671875 -1.109375 -0.671875 -2.421875q0 -2.25 1.5625 -3.703125q1.5625 -1.46875 4.453125 -1.46875q2.859375 0 4.4375 1.46875q1.578125 1.453125 1.578125 3.703125q0 1.390625 -0.734375 2.484375q-0.71875 1.078125 -2.03125 1.65625q1.671875 0.671875 2.53125 1.953125q0.875 1.28125 0.875 2.96875q0 2.765625 -1.765625 4.515625q-1.765625 1.734375 -4.71875 1.734375q-2.734375 0 -4.546875 -1.4375q-2.140625 -1.703125 -2.140625 -4.65625q0 -1.625 0.796875 -2.984375q0.8125 -1.359375 2.546875 -2.09375zm0.796875 -3.875q0 1.15625 0.640625 1.796875q0.65625 0.640625 1.734375 0.640625q1.09375 0 1.75 -0.640625q0.65625 -0.65625 0.65625 -1.8125q0 -1.078125 -0.65625 -1.71875q-0.640625 -0.65625 -1.703125 -0.65625q-1.109375 0 -1.765625 0.65625q-0.65625 0.65625 -0.65625 1.734375zm-0.359375 8.59375q0 1.578125 0.8125 2.46875q0.8125 0.890625 2.03125 0.890625q1.1875 0 1.96875 -0.84375q0.78125 -0.859375 0.78125 -2.484375q0 -1.40625 -0.796875 -2.25q-0.796875 -0.859375 -2.0 -0.859375q-1.421875 0 -2.109375 0.96875q-0.6875 0.96875 -0.6875 2.109375z" fill-rule="nonzero"/><path fill="#00ff00" d="m40.451347 504.32697l0 0c0 -22.326233 16.117748 -40.4252 36.0 -40.4252l0 0c9.547791 0 18.704536 4.2590637 25.455841 11.840271c6.7513123 7.5811768 10.544159 17.863495 10.544159 28.58493l0 0c0 22.326233 -16.117752 40.42517 -36.0 40.42517l0 0c-19.882252 0 -36.0 -18.098938 -36.0 -40.42517z" fill-rule="evenodd"/><path stroke="#000000" stroke-width="1.0" stroke-linejoin="round" stroke-linecap="butt" d="m40.451347 504.32697l0 0c0 -22.326233 16.117748 -40.4252 36.0 -40.4252l0 0c9.547791 0 18.704536 4.2590637 25.455841 11.840271c6.7513123 7.5811768 10.544159 17.863495 10.544159 28.58493l0 0c0 22.326233 -16.117752 40.42517 -36.0 40.42517l0 0c-19.882252 0 -36.0 -18.098938 -36.0 -40.42517z" fill-rule="evenodd"/><path fill="#000000" d="m74.16737 510.64444l0 3.5625305l-13.468746 0q0.21875 -2.03125 1.3125 -3.8281555q1.09375 -1.8125 4.312496 -4.8125q2.59375 -2.421875 3.1875 -3.28125q0.796875 -1.1875 0.796875 -2.359375q0 -1.28125 -0.703125 -1.96875q-0.6875 -0.6875 -1.890625 -0.6875q-1.203125 0 -1.921875 0.734375q-0.703125 0.71875 -0.8125 2.390625l-3.8281212 -0.375q0.328125 -3.171875 2.125 -4.546875q1.8124962 -1.390625 4.531246 -1.390625q2.96875 0 4.65625 1.609375q1.703125 1.59375 1.703125 3.96875q0 1.359375 -0.5 2.578125q-0.484375 1.21875 -1.53125 2.5625q-0.703125 0.890625 -2.515625 2.5625q-1.8125 1.65625 -2.296875 2.203125q-0.484375 0.546875 -0.796875 1.078125l7.640625 0zm2.6660156 -1.078125l3.71875 -0.40625q0.140625 1.140625 0.71875 1.6875q0.578125 0.546875 1.515625 0.546875q1.1875 0 2.015625 -1.09375q0.84375 -1.09375 1.078125 -4.546875q-1.453125 1.6875 -3.625 1.6875q-2.359375 0 -4.078125 -1.828125q-1.71875 -1.828125 -1.71875 -4.75q0 -3.046875 1.8125 -4.90625q1.8125 -1.875 4.609375 -1.875q3.046875 0 5.0 2.359375q1.96875 2.359375 1.96875 7.75q0 5.5 -2.046875 7.9375305q-2.03125 2.4375 -5.296875 2.4375q-2.359375 0 -3.8125 -1.25q-1.4375 -1.25 -1.859375 -3.7500305zm8.703125 -8.390625q0 -1.859375 -0.859375 -2.875q-0.84375 -1.03125 -1.96875 -1.03125q-1.0625 0 -1.78125 0.84375q-0.703125 0.828125 -0.703125 2.75q0 1.9375 0.765625 2.859375q0.765625 0.90625 1.921875 0.90625q1.109375 0 1.859375 -0.875q0.765625 -0.875 0.765625 -2.578125z" fill-rule="nonzero"/><path fill="#00ffff" d="m93.66436 349.14746l0 0c0 -22.326233 16.117744 -40.4252 35.999992 -40.4252l0 0c9.547806 0 18.704544 4.2590637 25.455856 11.840271c6.751297 7.5811768 10.544144 17.863495 10.544144 28.58493l0 0c0 22.326202 -16.117737 40.4252 -36.0 40.4252l0 0c-19.882248 0 -35.999992 -18.098999 -35.999992 -40.4252z" fill-rule="evenodd"/><path stroke="#000000" stroke-width="1.0" stroke-linejoin="round" stroke-linecap="butt" d="m93.66436 349.14746l0 0c0 -22.326233 16.117744 -40.4252 35.999992 -40.4252l0 0c9.547806 0 18.704544 4.2590637 25.455856 11.840271c6.751297 7.5811768 10.544144 17.863495 10.544144 28.58493l0 0c0 22.326202 -16.117737 40.4252 -36.0 40.4252l0 0c-19.882248 0 -35.999992 -18.098999 -35.999992 -40.4252z" fill-rule="evenodd"/><path fill="#000000" d="m114.25539 353.71497l3.71875 -0.453125q0.1875 1.421875 0.96875 2.171875q0.78125 0.75 1.875 0.75q1.203125 0 2.015625 -0.90625q0.8125 -0.90625 0.8125 -2.4375q0 -1.4375 -0.78125 -2.28125q-0.78125 -0.859375 -1.90625 -0.859375q-0.734375 0 -1.765625 0.296875l0.421875 -3.140625q1.5625 0.046875 2.375 -0.671875q0.828125 -0.71875 0.828125 -1.90625q0 -1.015625 -0.609375 -1.609375q-0.59375 -0.609375 -1.59375 -0.609375q-0.984375 0 -1.6875 0.6875q-0.6875 0.6875 -0.84375 2.0l-3.53125 -0.609375q0.359375 -1.8125 1.109375 -2.890625q0.75 -1.09375 2.078125 -1.71875q1.328125 -0.625 2.984375 -0.625q2.828125 0 4.546875 1.796875q1.40625 1.484375 1.40625 3.34375q0 2.640625 -2.890625 4.203125q1.734375 0.375 2.765625 1.671875q1.03125 1.28125 1.03125 3.09375q0 2.640625 -1.9375 4.5q-1.921875 1.859375 -4.796875 1.859375q-2.71875 0 -4.515625 -1.5625q-1.78125 -1.578125 -2.078125 -4.09375zm22.21289 -14.8125q2.90625 0 4.546875 2.078125q1.953125 2.453125 1.953125 8.15625q0 5.6875 -1.96875 8.1875q-1.625 2.046875 -4.53125 2.046875q-2.921875 0 -4.71875 -2.25q-1.796875 -2.25 -1.796875 -8.015625q0 -5.671875 1.96875 -8.15625q1.625 -2.046875 4.546875 -2.046875zm0 3.1875q-0.703125 0 -1.25 0.453125q-0.546875 0.4375 -0.84375 1.578125q-0.390625 1.5 -0.390625 5.015625q0 3.53125 0.34375 4.859375q0.359375 1.3125 0.890625 1.75q0.546875 0.4375 1.25 0.4375q0.6875 0 1.234375 -0.4375q0.546875 -0.453125 0.859375 -1.59375q0.390625 -1.484375 0.390625 -5.015625q0 -3.515625 -0.359375 -4.828125q-0.34375 -1.328125 -0.890625 -1.765625q-0.546875 -0.453125 -1.234375 -0.453125z" fill-rule="nonzero"/><path fill="#00ffff" d="m667.8067 151.5422l0 0c0 -22.326218 16.117737 -40.425194 36.0 -40.425194l0 0c9.547791 0 18.704529 4.2590714 25.45581 11.840271c6.751343 7.5811996 10.544189 17.863503 10.544189 28.584923l0 0c0 22.326233 -16.117737 40.4252 -36.0 40.4252l0 0c-19.882263 0 -36.0 -18.098969 -36.0 -40.4252z" fill-rule="evenodd"/><path stroke="#000000" stroke-width="1.0" stroke-linejoin="round" stroke-linecap="butt" d="m667.8067 151.5422l0 0c0 -22.326218 16.117737 -40.425194 36.0 -40.425194l0 0c9.547791 0 18.704529 4.2590714 25.45581 11.840271c6.751343 7.5811996 10.544189 17.863503 10.544189 28.584923l0 0c0 22.326233 -16.117737 40.4252 -36.0 40.4252l0 0c-19.882263 0 -36.0 -18.098969 -36.0 -40.4252z" fill-rule="evenodd"/><path fill="#000000" d="m688.6008 156.26596l3.828125 -0.390625q0.15625 1.296875 0.953125 2.0625q0.8125 0.75 1.875 0.75q1.203125 0 2.03125 -0.96875q0.84375 -0.984375 0.84375 -2.953125q0 -1.84375 -0.828125 -2.765625q-0.828125 -0.921875 -2.15625 -0.921875q-1.65625 0 -2.96875 1.453125l-3.125 -0.453125l1.96875 -10.421875l10.171875 0l0 3.59375l-7.25 0l-0.609375 3.40625q1.296875 -0.640625 2.625 -0.640625q2.5625 0 4.328125 1.859375q1.78125 1.859375 1.78125 4.8125q0 2.484375 -1.421875 4.421875q-1.96875 2.65625 -5.4375 2.65625q-2.765625 0 -4.515625 -1.484375q-1.75 -1.5 -2.09375 -4.015625z" fill-rule="nonzero"/><path fill="#00ff00" d="m799.7736 377.34497l0 0c0 -22.326233 16.117737 -40.4252 36.0 -40.4252l0 0c9.547791 0 18.704529 4.2590637 25.45581 11.840271c6.751343 7.5811768 10.544189 17.863495 10.544189 28.58493l0 0c0 22.326202 -16.117737 40.42517 -36.0 40.42517l0 0c-19.882263 0 -36.0 -18.098969 -36.0 -40.42517z" fill-rule="evenodd"/><path stroke="#000000" stroke-width="1.0" stroke-linejoin="round" stroke-linecap="butt" d="m799.7736 377.34497l0 0c0 -22.326233 16.117737 -40.4252 36.0 -40.4252l0 0c9.547791 0 18.704529 4.2590637 25.45581 11.840271c6.751343 7.5811768 10.544189 17.863495 10.544189 28.58493l0 0c0 22.326202 -16.117737 40.42517 -36.0 40.42517l0 0c-19.882263 0 -36.0 -18.098969 -36.0 -40.42517z" fill-rule="evenodd"/><path fill="#000000" d="m833.5209 372.08432l-3.71875 0.421875q-0.140625 -1.15625 -0.71875 -1.703125q-0.5625 -0.546875 -1.484375 -0.546875q-1.21875 0 -2.0625 1.09375q-0.828125 1.09375 -1.046875 4.546875q1.4375 -1.6875 3.5625 -1.6875q2.40625 0 4.125 1.828125q1.71875 1.828125 1.71875 4.734375q0 3.078125 -1.8125 4.9375q-1.796875 1.859375 -4.625 1.859375q-3.046875 0 -5.0 -2.359375q-1.953125 -2.359375 -1.953125 -7.734375q0 -5.515625 2.03125 -7.9375q2.046875 -2.4375 5.296875 -2.4375q2.28125 0 3.78125 1.28125q1.5 1.28125 1.90625 3.703125zm-8.703125 8.390625q0 1.875 0.859375 2.890625q0.859375 1.015625 1.96875 1.015625q1.0625 0 1.765625 -0.828125q0.71875 -0.84375 0.71875 -2.734375q0 -1.96875 -0.765625 -2.875q-0.765625 -0.90625 -1.90625 -0.90625q-1.109375 0 -1.875 0.875q-0.765625 0.859375 -0.765625 2.5625z" fill-rule="nonzero"/><path fill="#00ff00" d="m563.63806 86.65273l0 0c0 -22.326218 16.117737 -40.425194 36.0 -40.425194l0 0c9.547791 0 18.704529 4.2590714 25.455872 11.840263c6.7512817 7.5811996 10.544128 17.863503 10.544128 28.58493l0 0c0 22.326218 -16.117737 40.4252 -36.0 40.4252l0 0c-19.882263 0 -36.0 -18.098984 -36.0 -40.4252z" fill-rule="evenodd"/><path stroke="#000000" stroke-width="1.0" stroke-linejoin="round" stroke-linecap="butt" d="m563.63806 86.65273l0 0c0 -22.326218 16.117737 -40.425194 36.0 -40.425194l0 0c9.547791 0 18.704529 4.2590714 25.455872 11.840263c6.7512817 7.5811996 10.544128 17.863503 10.544128 28.58493l0 0c0 22.326218 -16.117737 40.4252 -36.0 40.4252l0 0c-19.882263 0 -36.0 -18.098984 -36.0 -40.4252z" fill-rule="evenodd"/><path fill="#000000" d="m591.901 96.53273l0 -4.03125l-8.203125 0l0 -3.359375l8.703125 -12.734375l3.21875 0l0 12.71875l2.5 0l0 3.375l-2.5 0l0 4.03125l-3.71875 0zm0 -7.40625l0 -6.859375l-4.609375 6.859375l4.609375 0z" fill-rule="nonzero"/><path fill="#00ff00" d="m459.46945 70.741135l0 0c0 -22.326218 16.117767 -40.425194 36.0 -40.425194l0 0c9.547821 0 18.70456 4.2590714 25.455841 11.840267c6.751343 7.581196 10.544189 17.863503 10.544189 28.584927l0 0c0 22.326225 -16.117737 40.4252 -36.00003 40.4252l0 0c-19.882233 0 -36.0 -18.098976 -36.0 -40.4252z" fill-rule="evenodd"/><path stroke="#000000" stroke-width="1.0" stroke-linejoin="round" stroke-linecap="butt" d="m459.46945 70.741135l0 0c0 -22.326218 16.117767 -40.425194 36.0 -40.425194l0 0c9.547821 0 18.70456 4.2590714 25.455841 11.840267c6.751343 7.581196 10.544189 17.863503 10.544189 28.584927l0 0c0 22.326225 -16.117737 40.4252 -36.00003 40.4252l0 0c-19.882233 0 -36.0 -18.098976 -36.0 -40.4252z" fill-rule="evenodd"/><path fill="#000000" d="m480.0605 75.30863l3.71875 -0.453125q0.1875 1.421875 0.96875 2.171875q0.78125 0.75 1.875 0.75q1.203125 0 2.015625 -0.90625q0.8125 -0.90625 0.8125 -2.4375q0 -1.4375 -0.78125 -2.28125q-0.78125 -0.859375 -1.90625 -0.859375q-0.734375 0 -1.765625 0.296875l0.421875 -3.140625q1.5625 0.046875 2.375 -0.671875q0.828125 -0.71875 0.828125 -1.90625q0 -1.015625 -0.609375 -1.609375q-0.59375 -0.6093712 -1.59375 -0.6093712q-0.984375 0 -1.6875 0.6874962q-0.6875 0.6875 -0.84375 2.0l-3.53125 -0.609375q0.359375 -1.8124962 1.109375 -2.8906212q0.75 -1.09375 2.078125 -1.71875q1.328125 -0.625 2.984375 -0.625q2.828125 0 4.546875 1.796875q1.40625 1.484375 1.40625 3.3437462q0 2.640625 -2.890625 4.203125q1.734375 0.375 2.765625 1.671875q1.03125 1.28125 1.03125 3.09375q0 2.640625 -1.9375 4.5q-1.921875 1.859375 -4.796875 1.859375q-2.71875 0 -4.515625 -1.5625q-1.78125 -1.578125 -2.078125 -4.09375z" fill-rule="nonzero"/><path fill="#00ff00" d="m212.8888 151.5422l0 0c0 -22.326218 16.117752 -40.425194 36.0 -40.425194l0 0c9.547791 0 18.704529 4.2590714 25.455841 11.840271c6.7513123 7.5811996 10.544159 17.863503 10.544159 28.584923l0 0c0 22.326233 -16.117737 40.4252 -36.0 40.4252l0 0c-19.882248 0 -36.0 -18.098969 -36.0 -40.4252z" fill-rule="evenodd"/><path stroke="#000000" stroke-width="1.0" stroke-linejoin="round" stroke-linecap="butt" d="m212.8888 151.5422l0 0c0 -22.326218 16.117752 -40.425194 36.0 -40.425194l0 0c9.547791 0 18.704529 4.2590714 25.455841 11.840271c6.7513123 7.5811996 10.544159 17.863503 10.544159 28.584923l0 0c0 22.326233 -16.117737 40.4252 -36.0 40.4252l0 0c-19.882248 0 -36.0 -18.098969 -36.0 -40.4252z" fill-rule="evenodd"/><path fill="#000000" d="m243.44858 161.42221l-3.84375 0l0 -14.484375q-2.09375 1.96875 -4.953125 2.921875l0 -3.484375q1.5 -0.5 3.265625 -1.875q1.765625 -1.375 2.421875 -3.203125l3.109375 0l0 20.125z" fill-rule="nonzero"/><path fill="#00ff00" d="m339.1299 70.741135l0 0c0 -22.326218 16.117737 -40.425194 36.0 -40.425194l0 0c9.547791 0 18.704529 4.2590714 25.455841 11.840267c6.7513123 7.581196 10.544159 17.863503 10.544159 28.584927l0 0c0 22.326225 -16.117767 40.4252 -36.0 40.4252l0 0c-19.882263 0 -36.0 -18.098976 -36.0 -40.4252z" fill-rule="evenodd"/><path stroke="#000000" stroke-width="1.0" stroke-linejoin="round" stroke-linecap="butt" d="m339.1299 70.741135l0 0c0 -22.326218 16.117737 -40.425194 36.0 -40.425194l0 0c9.547791 0 18.704529 4.2590714 25.455841 11.840267c6.7513123 7.581196 10.544159 17.863503 10.544159 28.584927l0 0c0 22.326225 -16.117767 40.4252 -36.0 40.4252l0 0c-19.882263 0 -36.0 -18.098976 -36.0 -40.4252z" fill-rule="evenodd"/><path fill="#000000" d="m372.84595 77.05863l0 3.5625l-13.46875 0q0.21875 -2.03125 1.3125 -3.828125q1.09375 -1.8125 4.3125 -4.8125q2.59375 -2.421875 3.1875 -3.28125q0.796875 -1.1875 0.796875 -2.359375q0 -1.28125 -0.703125 -1.96875q-0.6875 -0.6874962 -1.890625 -0.6874962q-1.203125 0 -1.921875 0.7343712q-0.703125 0.71875 -0.8125 2.390625l-3.828125 -0.375q0.328125 -3.1718712 2.125 -4.546871q1.8125 -1.390625 4.53125 -1.390625q2.96875 0 4.65625 1.609375q1.703125 1.59375 1.703125 3.9687462q0 1.359375 -0.5 2.578125q-0.484375 1.21875 -1.53125 2.5625q-0.703125 0.890625 -2.515625 2.5625q-1.8125 1.65625 -2.296875 2.203125q-0.484375 0.546875 -0.796875 1.078125l7.640625 0z" fill-rule="nonzero"/><path fill="#00ff00" d="m850.8458 522.34924l0 0c0 -22.326233 16.117737 -40.425232 36.0 -40.425232l0 0c9.547791 0 18.704529 4.259094 25.455872 11.840271c6.7512817 7.5812073 10.544128 17.863525 10.544128 28.58496l0 0c0 22.326172 -16.117737 40.42517 -36.0 40.42517l0 0c-19.882263 0 -36.0 -18.098999 -36.0 -40.42517z" fill-rule="evenodd"/><path stroke="#000000" stroke-width="1.0" stroke-linejoin="round" stroke-linecap="butt" d="m850.8458 522.34924l0 0c0 -22.326233 16.117737 -40.425232 36.0 -40.425232l0 0c9.547791 0 18.704529 4.259094 25.455872 11.840271c6.7512817 7.5812073 10.544128 17.863525 10.544128 28.58496l0 0c0 22.326172 -16.117737 40.42517 -36.0 40.42517l0 0c-19.882263 0 -36.0 -18.098999 -36.0 -40.42517z" fill-rule="evenodd"/><path fill="#000000" d="m871.5775 516.0261l0 -3.5625l13.140625 0l0 2.78125q-1.625 1.609375 -3.3125 4.609375q-1.671875 2.984375 -2.5625 6.359375q-0.875 3.359375 -0.859375 6.015625l-3.703125 0q0.09375 -4.15625 1.703125 -8.46875q1.625 -4.328125 4.328125 -7.734375l-8.734375 0z" fill-rule="nonzero"/><path fill="#00ff00" d="m871.7808 667.35864l0 0c0 -22.326172 16.117798 -40.42517 36.0 -40.42517l0 0c9.547791 0 18.704529 4.259094 25.455872 11.840271c6.7512817 7.5811768 10.544128 17.863464 10.544128 28.5849l0 0c0 22.326233 -16.117737 40.425232 -36.0 40.425232l0 0c-19.882202 0 -36.0 -18.098999 -36.0 -40.425232z" fill-rule="evenodd"/><path stroke="#000000" stroke-width="1.0" stroke-linejoin="round" stroke-linecap="butt" d="m871.7808 667.35864l0 0c0 -22.326172 16.117798 -40.42517 36.0 -40.42517l0 0c9.547791 0 18.704529 4.259094 25.455872 11.840271c6.7512817 7.5811768 10.544128 17.863464 10.544128 28.5849l0 0c0 22.326233 -16.117737 40.425232 -36.0 40.425232l0 0c-19.882202 0 -36.0 -18.098999 -36.0 -40.425232z" fill-rule="evenodd"/><path fill="#000000" d="m895.8094 666.42615q-1.484375 -0.625 -2.171875 -1.71875q-0.671875 -1.109375 -0.671875 -2.421875q0 -2.25 1.5625 -3.703125q1.5625 -1.46875 4.453125 -1.46875q2.859375 0 4.4375 1.46875q1.578125 1.453125 1.578125 3.703125q0 1.390625 -0.734375 2.484375q-0.71875 1.078125 -2.03125 1.65625q1.671875 0.671875 2.53125 1.953125q0.875 1.28125 0.875 2.96875q0 2.765625 -1.765625 4.515625q-1.765625 1.734375 -4.71875 1.734375q-2.734375 0 -4.546875 -1.4375q-2.140625 -1.703125 -2.140625 -4.65625q0 -1.625 0.796875 -2.984375q0.8125 -1.359375 2.546875 -2.09375zm0.796875 -3.875q0 1.15625 0.640625 1.796875q0.65625 0.640625 1.734375 0.640625q1.09375 0 1.75 -0.640625q0.65625 -0.65625 0.65625 -1.8125q0 -1.078125 -0.65625 -1.71875q-0.640625 -0.65625 -1.703125 -0.65625q-1.109375 0 -1.765625 0.65625q-0.65625 0.65625 -0.65625 1.734375zm-0.359375 8.59375q0 1.578125 0.8125 2.46875q0.8125 0.890625 2.03125 0.890625q1.1875 0 1.96875 -0.84375q0.78125 -0.859375 0.78125 -2.484375q0 -1.40625 -0.796875 -2.25q-0.796875 -0.859375 -2.0 -0.859375q-1.421875 0 -2.109375 0.96875q-0.6875 0.96875 -0.6875 2.109375z" fill-rule="nonzero"/><path fill="#00ff00" d="m850.8458 812.36554l0 0c0 -22.326233 16.117737 -40.425232 36.0 -40.425232l0 0c9.547791 0 18.704529 4.259094 25.455872 11.840271c6.7512817 7.5811768 10.544128 17.863525 10.544128 28.58496l0 0c0 22.326172 -16.117737 40.42517 -36.0 40.42517l0 0c-19.882263 0 -36.0 -18.098999 -36.0 -40.42517z" fill-rule="evenodd"/><path stroke="#000000" stroke-width="1.0" stroke-linejoin="round" stroke-linecap="butt" d="m850.8458 812.36554l0 0c0 -22.326233 16.117737 -40.425232 36.0 -40.425232l0 0c9.547791 0 18.704529 4.259094 25.455872 11.840271c6.7512817 7.5811768 10.544128 17.863525 10.544128 28.58496l0 0c0 22.326172 -16.117737 40.42517 -36.0 40.42517l0 0c-19.882263 0 -36.0 -18.098999 -36.0 -40.42517z" fill-rule="evenodd"/><path fill="#000000" d="m871.65564 817.60486l3.71875 -0.40625q0.140625 1.140625 0.71875 1.6875q0.578125 0.546875 1.515625 0.546875q1.1875 0 2.015625 -1.09375q0.84375 -1.09375 1.078125 -4.546875q-1.453125 1.6875 -3.625 1.6875q-2.359375 0 -4.078125 -1.828125q-1.71875 -1.828125 -1.71875 -4.75q0 -3.046875 1.8125 -4.90625q1.8125 -1.875 4.609375 -1.875q3.046875 0 5.0 2.359375q1.96875 2.359375 1.96875 7.75q0 5.5 -2.046875 7.9375q-2.03125 2.4375 -5.296875 2.4375q-2.359375 0 -3.8125 -1.25q-1.4375 -1.25 -1.859375 -3.75zm8.703125 -8.390625q0 -1.859375 -0.859375 -2.875q-0.84375 -1.03125 -1.96875 -1.03125q-1.0625 0 -1.78125 0.84375q-0.703125 0.828125 -0.703125 2.75q0 1.9375 0.765625 2.859375q0.765625 0.90625 1.921875 0.90625q1.109375 0 1.859375 -0.875q0.765625 -0.875 0.765625 -2.578125z" fill-rule="nonzero"/><path fill="#000000" fill-opacity="0.0" d="m358.68457 160.52998l52.44095 0l0 69.480316l-52.44095 0z" fill-rule="evenodd"/><path fill="#000000" d="m397.37207 209.20998l-6.5 0l-2.578125 -6.71875l-11.828125 0l-2.4375 6.71875l-6.34375 0l11.515625 -29.578125l6.328125 0l11.84375 29.578125zm-11.0 -11.703125l-4.078125 -10.984375l-4.0 10.984375l8.078125 0z" fill-rule="nonzero"/><path fill="#000000" fill-opacity="0.0" d="m135.10622 464.9273l52.44095 0l0 69.48035l-52.44095 0z" fill-rule="evenodd"/><path fill="#000000" d="m147.09059 484.02917l10.921875 0q3.6875 0 5.625 0.5625q2.609375 0.765625 4.453125 2.71875q1.859375 1.953125 2.828125 4.796875q0.96875 2.828125 0.96875 6.984375q0 3.65625 -0.90625 6.296875q-1.109375 3.234375 -3.15625 5.234375q-1.5625 1.515625 -4.203125 2.359375q-1.984375 0.625 -5.28125 0.625l-11.25 0l0 -29.578125zm5.96875 5.0l0 19.59375l4.46875 0q2.5 0 3.609375 -0.28125q1.453125 -0.359375 2.40625 -1.21875q0.96875 -0.875 1.5625 -2.859375q0.609375 -2.0 0.609375 -5.421875q0 -3.4375 -0.609375 -5.265625q-0.59375 -1.84375 -1.6875 -2.875q-1.09375 -1.03125 -2.765625 -1.390625q-1.25 -0.28125 -4.90625 -0.28125l-2.6875 0z" fill-rule="nonzero"/><path fill="#000000" fill-opacity="0.0" d="m570.08124 1042.6394l52.440918 0l0 69.48035l-52.440918 0z" fill-rule="evenodd"/><path fill="#000000" d="m601.01874 1080.4445l5.796875 1.828125q-1.34375 4.84375 -4.4375 7.203125q-3.09375 2.34375 -7.859375 2.34375q-5.890625 0 -9.6875 -4.015625q-3.796875 -4.03125 -3.796875 -11.015625q0 -7.390625 3.8125 -11.46875q3.8125 -4.09375 10.03125 -4.09375q5.4375 0 8.828125 3.21875q2.015625 1.890625 3.015625 5.4375l-5.90625 1.421875q-0.53125 -2.296875 -2.203125 -3.625q-1.65625 -1.34375 -4.03125 -1.34375q-3.296875 0 -5.34375 2.359375q-2.046875 2.359375 -2.046875 7.65625q0 5.609375 2.015625 8.0q2.015625 2.375 5.25 2.375q2.390625 0 4.09375 -1.515625q1.71875 -1.515625 2.46875 -4.765625z" fill-rule="nonzero"/><path fill="#000000" fill-opacity="0.0" d="m763.17566 441.2904l52.44098 0l0 69.480316l-52.44098 0z" fill-rule="evenodd"/><path fill="#000000" d="m775.2069 460.39227l11.828125 0q3.5 0 5.21875 0.296875q1.734375 0.28125 3.09375 1.21875q1.359375 0.921875 2.265625 2.46875q0.921875 1.546875 0.921875 3.453125q0 2.078125 -1.125 3.8125q-1.125 1.734375 -3.03125 2.609375q2.703125 0.78125 4.15625 2.6875q1.453125 1.890625 1.453125 4.453125q0 2.015625 -0.9375 3.921875q-0.9375 1.90625 -2.5625 3.046875q-1.625 1.140625 -4.015625 1.40625q-1.484375 0.15625 -7.203125 0.203125l-10.0625 0l0 -29.578125zm5.96875 4.921875l0 6.84375l3.921875 0q3.484375 0 4.328125 -0.109375q1.53125 -0.171875 2.40625 -1.046875q0.890625 -0.890625 0.890625 -2.328125q0 -1.359375 -0.765625 -2.21875q-0.75 -0.859375 -2.25 -1.046875q-0.890625 -0.09375 -5.09375 -0.09375l-3.4375 0zm0 11.765625l0 7.90625l5.53125 0q3.234375 0 4.09375 -0.1875q1.328125 -0.234375 2.15625 -1.171875q0.84375 -0.9375 0.84375 -2.515625q0 -1.328125 -0.640625 -2.25q-0.640625 -0.9375 -1.859375 -1.359375q-1.21875 -0.421875 -5.296875 -0.421875l-4.828125 0z" fill-rule="nonzero"/></g></svg>